<mxfile host="app.diagrams.net" agent="Mozilla/5.0 (Windows NT 10.0; Win64; x64) AppleWebKit/537.36 (KHTML, like Gecko) Chrome/126.0.0.0 Safari/537.36" version="27.1.4">
  <diagram id="jrXY4hO8n29qiqvIHeQG" name="Page-1">
    <mxGraphModel dx="4594" dy="2395" grid="1" gridSize="10" guides="1" tooltips="1" connect="1" arrows="1" fold="1" page="0" pageScale="1" pageWidth="827" pageHeight="1169" math="0" shadow="0">
      <root>
        <mxCell id="0" />
        <mxCell id="1" parent="0" />
        <mxCell id="5G6M97Ru5O6IGqaMy1Rf-22" value="AWS Cloud" style="points=[[0,0],[0.25,0],[0.5,0],[0.75,0],[1,0],[1,0.25],[1,0.5],[1,0.75],[1,1],[0.75,1],[0.5,1],[0.25,1],[0,1],[0,0.75],[0,0.5],[0,0.25]];outlineConnect=0;gradientColor=none;html=1;whiteSpace=wrap;fontSize=12;fontStyle=0;shape=mxgraph.aws4.group;grIcon=mxgraph.aws4.group_aws_cloud_alt;strokeColor=#232F3E;verticalAlign=top;align=left;spacingLeft=30;fontColor=#232F3E;dashed=0;fillColor=none;" parent="1" vertex="1">
          <mxGeometry x="-1020" y="-800" width="820" height="1030" as="geometry" />
        </mxCell>
        <mxCell id="5G6M97Ru5O6IGqaMy1Rf-23" value="VPC" style="points=[[0,0],[0.25,0],[0.5,0],[0.75,0],[1,0],[1,0.25],[1,0.5],[1,0.75],[1,1],[0.75,1],[0.5,1],[0.25,1],[0,1],[0,0.75],[0,0.5],[0,0.25]];outlineConnect=0;gradientColor=none;html=1;whiteSpace=wrap;fontSize=12;fontStyle=0;shape=mxgraph.aws4.group;grIcon=mxgraph.aws4.group_vpc;strokeColor=#248814;fillColor=none;verticalAlign=top;align=left;spacingLeft=30;dashed=0;fontColor=#248814;" parent="1" vertex="1">
          <mxGeometry x="-1000" y="-720" width="790" height="940" as="geometry" />
        </mxCell>
        <mxCell id="5G6M97Ru5O6IGqaMy1Rf-31" value="Availability Zone 1" style="strokeColor=#147EBA;dashed=1;verticalAlign=top;fontStyle=0;fontColor=#147EBA;" parent="1" vertex="1">
          <mxGeometry x="-970" y="-690" width="750" height="900" as="geometry" />
        </mxCell>
        <mxCell id="5G6M97Ru5O6IGqaMy1Rf-24" value="Public DMZ1" style="points=[[0,0],[0.25,0],[0.5,0],[0.75,0],[1,0],[1,0.25],[1,0.5],[1,0.75],[1,1],[0.75,1],[0.5,1],[0.25,1],[0,1],[0,0.75],[0,0.5],[0,0.25]];outlineConnect=0;gradientColor=none;html=1;whiteSpace=wrap;fontSize=12;fontStyle=0;shape=mxgraph.aws4.group;grIcon=mxgraph.aws4.group_security_group;grStroke=0;strokeColor=#248814;fillColor=#E9F3E6;verticalAlign=top;align=left;spacingLeft=30;fontColor=#248814;dashed=0;" parent="1" vertex="1">
          <mxGeometry x="-960" y="-662" width="730" height="172" as="geometry" />
        </mxCell>
        <mxCell id="5G6M97Ru5O6IGqaMy1Rf-26" value="Private Subnet&amp;nbsp;" style="points=[[0,0],[0.25,0],[0.5,0],[0.75,0],[1,0],[1,0.25],[1,0.5],[1,0.75],[1,1],[0.75,1],[0.5,1],[0.25,1],[0,1],[0,0.75],[0,0.5],[0,0.25]];outlineConnect=0;gradientColor=none;html=1;whiteSpace=wrap;fontSize=12;fontStyle=0;shape=mxgraph.aws4.group;grIcon=mxgraph.aws4.group_security_group;grStroke=0;strokeColor=#147EBA;fillColor=#E6F2F8;verticalAlign=top;align=left;spacingLeft=30;fontColor=#147EBA;dashed=0;" parent="1" vertex="1">
          <mxGeometry x="-960" y="-485" width="730" height="675" as="geometry" />
        </mxCell>
        <mxCell id="5G6M97Ru5O6IGqaMy1Rf-28" value="Auto Scaling&amp;nbsp;" style="points=[[0,0],[0.25,0],[0.5,0],[0.75,0],[1,0],[1,0.25],[1,0.5],[1,0.75],[1,1],[0.75,1],[0.5,1],[0.25,1],[0,1],[0,0.75],[0,0.5],[0,0.25]];outlineConnect=0;gradientColor=none;html=1;whiteSpace=wrap;fontSize=12;fontStyle=0;shape=mxgraph.aws4.groupCenter;grIcon=mxgraph.aws4.group_auto_scaling_group;grStroke=1;strokeColor=#D86613;fillColor=none;verticalAlign=top;align=center;fontColor=#D86613;dashed=1;spacingTop=25;" parent="1" vertex="1">
          <mxGeometry x="-880" y="20" width="250" height="130" as="geometry" />
        </mxCell>
        <mxCell id="5G6M97Ru5O6IGqaMy1Rf-30" value="Elastic&lt;br&gt;Load&lt;br&gt;Balancer" style="outlineConnect=0;strokeColor=#248814;dashed=0;verticalLabelPosition=bottom;verticalAlign=middle;align=center;html=1;fontSize=12;fontStyle=0;aspect=fixed;shape=mxgraph.aws4.resourceIcon;resIcon=mxgraph.aws4.elastic_load_balancing;fillColor=none;spacingLeft=2;fontColor=#248814;textDirection=ltr;" parent="1" vertex="1">
          <mxGeometry x="-629" y="-606.29" width="48" height="48" as="geometry" />
        </mxCell>
        <mxCell id="5G6M97Ru5O6IGqaMy1Rf-34" value="celery worker(fetcher)" style="outlineConnect=0;gradientColor=none;fillColor=#D05C17;strokeColor=none;dashed=0;verticalLabelPosition=bottom;verticalAlign=top;align=center;html=1;fontSize=12;fontStyle=0;aspect=fixed;pointerEvents=1;shape=mxgraph.aws4.ecs_service;fontColor=#D05C17;" parent="1" vertex="1">
          <mxGeometry x="-454" y="69" width="41.03" height="50" as="geometry" />
        </mxCell>
        <mxCell id="5G6M97Ru5O6IGqaMy1Rf-35" value="celery woorker(tagger)" style="outlineConnect=0;gradientColor=none;fillColor=#D05C17;strokeColor=none;dashed=0;verticalLabelPosition=bottom;verticalAlign=top;align=center;html=1;fontSize=12;fontStyle=0;aspect=fixed;pointerEvents=1;shape=mxgraph.aws4.ecs_service;fontColor=#D05C17;" parent="1" vertex="1">
          <mxGeometry x="-775.52" y="70" width="41.03" height="50" as="geometry" />
        </mxCell>
        <mxCell id="5G6M97Ru5O6IGqaMy1Rf-36" value="Internet Gateway" style="outlineConnect=0;fontColor=#232F3E;gradientColor=none;fillColor=#232F3E;strokeColor=none;dashed=0;verticalLabelPosition=bottom;verticalAlign=top;align=center;html=1;fontSize=12;fontStyle=0;aspect=fixed;pointerEvents=1;shape=mxgraph.aws4.internet_alt2;" parent="1" vertex="1">
          <mxGeometry x="-624" y="-800" width="48" height="48" as="geometry" />
        </mxCell>
        <mxCell id="5G6M97Ru5O6IGqaMy1Rf-37" value="Users" style="outlineConnect=0;fontColor=#232F3E;gradientColor=none;fillColor=#232F3E;strokeColor=none;dashed=0;verticalLabelPosition=bottom;verticalAlign=top;align=center;html=1;fontSize=12;fontStyle=0;aspect=fixed;pointerEvents=1;shape=mxgraph.aws4.users;" parent="1" vertex="1">
          <mxGeometry x="-620" y="-870" width="40" height="40" as="geometry" />
        </mxCell>
        <mxCell id="5G6M97Ru5O6IGqaMy1Rf-52" value="MYSQAL MASTER" style="outlineConnect=0;gradientColor=none;dashed=0;verticalLabelPosition=bottom;verticalAlign=top;align=center;html=1;fontSize=12;fontStyle=0;aspect=fixed;shape=mxgraph.aws4.resourceIcon;resIcon=mxgraph.aws4.database;fillColor=none;strokeColor=#3334B9;fontColor=#3334B9;" parent="1" vertex="1">
          <mxGeometry x="-660" y="-190" width="60" height="60" as="geometry" />
        </mxCell>
        <mxCell id="5G6M97Ru5O6IGqaMy1Rf-55" value="MYSQL SLAVE" style="outlineConnect=0;gradientColor=none;dashed=0;verticalLabelPosition=bottom;verticalAlign=top;align=center;html=1;fontSize=12;fontStyle=0;aspect=fixed;shape=mxgraph.aws4.resourceIcon;resIcon=mxgraph.aws4.database;fillColor=none;strokeColor=#3334B9;fontColor=#3334B9;" parent="1" vertex="1">
          <mxGeometry x="-530" y="-190" width="60" height="60" as="geometry" />
        </mxCell>
        <mxCell id="K6sfdhCdQLbEuAQpwcir-16" style="edgeStyle=orthogonalEdgeStyle;rounded=0;orthogonalLoop=1;jettySize=auto;html=1;" edge="1" parent="1" source="5G6M97Ru5O6IGqaMy1Rf-33" target="5G6M97Ru5O6IGqaMy1Rf-52">
          <mxGeometry relative="1" as="geometry">
            <Array as="points">
              <mxPoint x="-590" y="-65" />
              <mxPoint x="-700" y="-65" />
              <mxPoint x="-700" y="-160" />
            </Array>
          </mxGeometry>
        </mxCell>
        <mxCell id="K6sfdhCdQLbEuAQpwcir-21" style="edgeStyle=orthogonalEdgeStyle;rounded=0;orthogonalLoop=1;jettySize=auto;html=1;" edge="1" parent="1" source="5G6M97Ru5O6IGqaMy1Rf-33" target="K6sfdhCdQLbEuAQpwcir-1">
          <mxGeometry relative="1" as="geometry">
            <Array as="points">
              <mxPoint x="-600" y="-50" />
              <mxPoint x="-830" y="-50" />
              <mxPoint x="-830" y="-160" />
            </Array>
          </mxGeometry>
        </mxCell>
        <mxCell id="5G6M97Ru5O6IGqaMy1Rf-33" value="Asynchronous tasks" style="fillColor=none;strokeColor=#5A6C86;dashed=1;verticalAlign=top;fontStyle=0;fontColor=#5A6C86;" parent="1" vertex="1">
          <mxGeometry x="-930" y="-10" width="680" height="180" as="geometry" />
        </mxCell>
        <mxCell id="5G6M97Ru5O6IGqaMy1Rf-29" value="Auto Scaling&amp;nbsp;" style="points=[[0,0],[0.25,0],[0.5,0],[0.75,0],[1,0],[1,0.25],[1,0.5],[1,0.75],[1,1],[0.75,1],[0.5,1],[0.25,1],[0,1],[0,0.75],[0,0.5],[0,0.25]];outlineConnect=0;gradientColor=none;html=1;whiteSpace=wrap;fontSize=12;fontStyle=0;shape=mxgraph.aws4.groupCenter;grIcon=mxgraph.aws4.group_auto_scaling_group;grStroke=1;strokeColor=#D86613;fillColor=none;verticalAlign=top;align=center;fontColor=#D86613;dashed=1;spacingTop=25;" parent="1" vertex="1">
          <mxGeometry x="-560" y="20" width="250" height="130" as="geometry" />
        </mxCell>
        <mxCell id="5G6M97Ru5O6IGqaMy1Rf-42" value="Databases" style="fillColor=none;strokeColor=#5A6C86;dashed=1;verticalAlign=top;fontStyle=0;fontColor=#5A6C86;" parent="1" vertex="1">
          <mxGeometry x="-929" y="-280" width="680" height="259" as="geometry" />
        </mxCell>
        <mxCell id="K6sfdhCdQLbEuAQpwcir-1" value="REDIS" style="outlineConnect=0;gradientColor=none;dashed=0;verticalLabelPosition=bottom;verticalAlign=top;align=center;html=1;fontSize=12;fontStyle=0;aspect=fixed;shape=mxgraph.aws4.resourceIcon;resIcon=mxgraph.aws4.database;fillColor=none;strokeColor=#3334B9;fontColor=#3334B9;" vertex="1" parent="1">
          <mxGeometry x="-794.49" y="-190" width="60" height="60" as="geometry" />
        </mxCell>
        <mxCell id="K6sfdhCdQLbEuAQpwcir-2" value="WEB SERVER2" style="sketch=0;outlineConnect=0;fontColor=#232F3E;gradientColor=none;fillColor=#232F3D;strokeColor=none;dashed=0;verticalLabelPosition=bottom;verticalAlign=top;align=center;html=1;fontSize=12;fontStyle=0;aspect=fixed;pointerEvents=1;shape=mxgraph.aws4.globe;" vertex="1" parent="1">
          <mxGeometry x="-500" y="-610.29" width="52" height="52" as="geometry" />
        </mxCell>
        <mxCell id="K6sfdhCdQLbEuAQpwcir-3" value="S3" style="outlineConnect=0;gradientColor=none;dashed=0;verticalLabelPosition=bottom;verticalAlign=top;align=center;html=1;fontSize=12;fontStyle=0;aspect=fixed;shape=mxgraph.aws4.resourceIcon;resIcon=mxgraph.aws4.database;fillColor=none;strokeColor=#3334B9;fontColor=#3334B9;" vertex="1" parent="1">
          <mxGeometry x="-412.97" y="-190" width="60" height="60" as="geometry" />
        </mxCell>
        <mxCell id="K6sfdhCdQLbEuAQpwcir-4" value="" style="shape=image;html=1;verticalAlign=top;verticalLabelPosition=bottom;labelBackgroundColor=#ffffff;imageAspect=0;aspect=fixed;image=https://cdn0.iconfinder.com/data/icons/social-media-2104/24/social_media_social_media_logo_docker-128.png;dashed=0;pointerEvents=1;align=center;fontFamily=Helvetica;fontSize=12;fontColor=#D05C17;fontStyle=0;fillColor=#D05C17;gradientColor=none;" vertex="1" parent="1">
          <mxGeometry x="-2191.0299999999997" y="20" width="80" height="80" as="geometry" />
        </mxCell>
        <mxCell id="K6sfdhCdQLbEuAQpwcir-19" style="edgeStyle=orthogonalEdgeStyle;rounded=0;orthogonalLoop=1;jettySize=auto;html=1;" edge="1" parent="1" source="K6sfdhCdQLbEuAQpwcir-7" target="K6sfdhCdQLbEuAQpwcir-1">
          <mxGeometry relative="1" as="geometry">
            <Array as="points">
              <mxPoint x="-620" y="-240" />
              <mxPoint x="-764" y="-240" />
            </Array>
          </mxGeometry>
        </mxCell>
        <mxCell id="K6sfdhCdQLbEuAQpwcir-24" value="" style="edgeStyle=orthogonalEdgeStyle;rounded=0;orthogonalLoop=1;jettySize=auto;html=1;" edge="1" parent="1" source="K6sfdhCdQLbEuAQpwcir-7" target="K6sfdhCdQLbEuAQpwcir-8">
          <mxGeometry relative="1" as="geometry" />
        </mxCell>
        <mxCell id="K6sfdhCdQLbEuAQpwcir-7" value="Backend" style="fillColor=none;strokeColor=#5A6C86;dashed=1;verticalAlign=top;fontStyle=0;fontColor=#5A6C86;" vertex="1" parent="1">
          <mxGeometry x="-930" y="-450" width="680" height="160" as="geometry" />
        </mxCell>
        <mxCell id="K6sfdhCdQLbEuAQpwcir-8" value="Front End" style="fillColor=none;strokeColor=#5A6C86;dashed=1;verticalAlign=top;fontStyle=0;fontColor=#5A6C86;" vertex="1" parent="1">
          <mxGeometry x="-930" y="-636.29" width="680" height="130" as="geometry" />
        </mxCell>
        <mxCell id="K6sfdhCdQLbEuAQpwcir-9" value="" style="shape=image;html=1;verticalAlign=top;verticalLabelPosition=bottom;labelBackgroundColor=#ffffff;imageAspect=0;aspect=fixed;image=https://cdn0.iconfinder.com/data/icons/social-media-2104/24/social_media_social_media_logo_docker-128.png;dashed=0;pointerEvents=1;align=center;fontFamily=Helvetica;fontSize=12;fontColor=#D05C17;fontStyle=0;fillColor=#D05C17;gradientColor=none;" vertex="1" parent="1">
          <mxGeometry x="-2081.0299999999997" y="10" width="80" height="80" as="geometry" />
        </mxCell>
        <mxCell id="K6sfdhCdQLbEuAQpwcir-10" value="FLASK API&lt;div&gt;CELERY&amp;nbsp;Producer&lt;/div&gt;" style="shape=image;html=1;verticalAlign=top;verticalLabelPosition=bottom;labelBackgroundColor=none;imageAspect=0;aspect=fixed;image=https://cdn0.iconfinder.com/data/icons/social-media-2104/24/social_media_social_media_logo_docker-128.png;dashed=0;pointerEvents=1;align=center;fontFamily=Helvetica;fontSize=12;fontColor=#D05C17;fontStyle=0;fillColor=#D05C17;gradientColor=none;" vertex="1" parent="1">
          <mxGeometry x="-784" y="-418" width="80" height="80" as="geometry" />
        </mxCell>
        <mxCell id="K6sfdhCdQLbEuAQpwcir-11" value="WEB SERVER1" style="sketch=0;outlineConnect=0;fontColor=#232F3E;gradientColor=none;fillColor=#232F3D;strokeColor=none;dashed=0;verticalLabelPosition=bottom;verticalAlign=top;align=center;html=1;fontSize=12;fontStyle=0;aspect=fixed;pointerEvents=1;shape=mxgraph.aws4.globe;" vertex="1" parent="1">
          <mxGeometry x="-770" y="-608.29" width="52" height="52" as="geometry" />
        </mxCell>
        <mxCell id="K6sfdhCdQLbEuAQpwcir-12" value="FLASK API&lt;div&gt;CELERY&amp;nbsp;Producer&lt;/div&gt;" style="shape=image;html=1;verticalAlign=top;verticalLabelPosition=bottom;labelBackgroundColor=none;imageAspect=0;aspect=fixed;image=https://cdn0.iconfinder.com/data/icons/social-media-2104/24/social_media_social_media_logo_docker-128.png;dashed=0;pointerEvents=1;align=center;fontFamily=Helvetica;fontSize=12;fontColor=#D05C17;fontStyle=0;fillColor=#D05C17;gradientColor=none;" vertex="1" parent="1">
          <mxGeometry x="-514" y="-419" width="80" height="80" as="geometry" />
        </mxCell>
        <mxCell id="K6sfdhCdQLbEuAQpwcir-17" value="" style="edgeStyle=orthogonalEdgeStyle;html=1;endArrow=block;elbow=vertical;startArrow=block;startFill=1;endFill=1;strokeColor=#545B64;rounded=0;" edge="1" parent="1" source="5G6M97Ru5O6IGqaMy1Rf-52" target="5G6M97Ru5O6IGqaMy1Rf-55">
          <mxGeometry width="100" relative="1" as="geometry">
            <mxPoint x="-740" y="-100" as="sourcePoint" />
            <mxPoint x="-640" y="-100" as="targetPoint" />
          </mxGeometry>
        </mxCell>
        <mxCell id="K6sfdhCdQLbEuAQpwcir-25" style="edgeStyle=orthogonalEdgeStyle;rounded=0;orthogonalLoop=1;jettySize=auto;html=1;entryX=0.632;entryY=1.015;entryDx=0;entryDy=0;entryPerimeter=0;" edge="1" parent="1" source="5G6M97Ru5O6IGqaMy1Rf-55" target="K6sfdhCdQLbEuAQpwcir-7">
          <mxGeometry relative="1" as="geometry" />
        </mxCell>
      </root>
    </mxGraphModel>
  </diagram>
</mxfile>
